<svg xmlns="http://www.w3.org/2000/svg" xmlns:xlink="http://www.w3.org/1999/xlink" width="40" zoomAndPan="magnify" viewBox="0 0 30 30.000001" height="40" preserveAspectRatio="xMidYMid meet" version="1.0"><defs><clipPath id="bd2218e7fd"><path d="M 1.164062 4.570312 L 28.746094 4.570312 L 28.746094 24.167969 L 1.164062 24.167969 Z M 1.164062 4.570312 " clip-rule="nonzero"/></clipPath></defs><path fill="#000000" d="M 17.972656 20.859375 C 16.859375 20.621094 15.410156 20.492188 13.890625 20.492188 C 12.375 20.492188 10.925781 20.621094 9.808594 20.859375 C 8.535156 21.132812 8.210938 21.425781 8.140625 21.511719 C 8.210938 21.59375 8.535156 21.886719 9.808594 22.160156 C 10.925781 22.398438 12.375 22.53125 13.890625 22.53125 C 15.410156 22.53125 16.859375 22.398438 17.972656 22.160156 C 19.246094 21.886719 19.574219 21.59375 19.640625 21.511719 C 19.574219 21.425781 19.246094 21.132812 17.972656 20.859375 " fill-opacity="1" fill-rule="nonzero"/><path fill="#000000" d="M 8.128906 16.933594 L 8.128906 20.476562 C 8.460938 20.316406 8.882812 20.175781 9.402344 20.054688 C 10.605469 19.769531 12.199219 19.613281 13.890625 19.613281 C 15.582031 19.613281 17.179688 19.769531 18.382812 20.054688 C 18.902344 20.175781 19.324219 20.316406 19.65625 20.476562 L 19.65625 18.113281 C 19.285156 18.109375 18.917969 18.050781 18.566406 17.9375 C 17.042969 17.441406 15.753906 16.523438 14.941406 15.839844 C 14.125 15.152344 13.144531 14.714844 12.105469 14.574219 C 10.777344 14.394531 9.703125 14.742188 8.914062 15.613281 C 8.40625 16.175781 8.183594 16.765625 8.128906 16.933594 " fill-opacity="1" fill-rule="nonzero"/><path fill="#000000" d="M 25.566406 10.800781 C 25.054688 10.605469 24.480469 10.601562 23.945312 10.789062 C 23.6875 10.882812 22.328125 11.339844 20.707031 11.4375 C 19.929688 11.480469 19.222656 11.433594 18.601562 11.296875 C 18.410156 11.253906 18.222656 11.199219 18.046875 11.140625 C 18.050781 11.148438 18.054688 11.15625 18.058594 11.167969 C 18.679688 12.628906 18.8125 13.792969 18.816406 13.84375 C 18.84375 14.085938 18.667969 14.300781 18.421875 14.328125 C 18.179688 14.351562 17.960938 14.179688 17.933594 13.9375 C 17.933594 13.925781 17.804688 12.828125 17.230469 11.480469 C 16.46875 9.695312 15.324219 8.339844 13.828125 7.449219 C 13.828125 7.449219 13.824219 7.449219 13.820312 7.445312 C 13.816406 7.445312 13.1875 7.0625 12.15625 6.726562 C 11.210938 6.417969 9.71875 6.089844 7.984375 6.261719 C 6.164062 6.441406 4.539062 7.457031 3.636719 8.976562 C 3.082031 9.90625 2.851562 10.917969 2.953125 11.980469 C 3.039062 12.910156 3.382812 13.824219 3.941406 14.621094 C 3.957031 14.640625 3.972656 14.660156 3.988281 14.679688 C 4.730469 15.71875 6.199219 16.300781 7.390625 16.394531 C 7.488281 16.152344 7.660156 15.816406 7.914062 15.460938 C 7.289062 14.984375 6.242188 13.839844 5.980469 11.359375 C 5.953125 11.121094 6.128906 10.90625 6.375 10.878906 C 6.617188 10.855469 6.835938 11.027344 6.859375 11.269531 C 7.03125 12.867188 7.554688 13.796875 7.964844 14.292969 C 8.164062 14.53125 8.347656 14.691406 8.488281 14.792969 C 8.792969 14.503906 9.183594 14.222656 9.667969 14.011719 C 9.335938 13.53125 9.023438 12.824219 8.914062 11.777344 C 8.890625 11.539062 9.066406 11.320312 9.308594 11.296875 C 9.550781 11.269531 9.769531 11.445312 9.796875 11.6875 C 9.914062 12.800781 10.289062 13.417969 10.574219 13.742188 C 11.058594 13.648438 11.601562 13.621094 12.226562 13.707031 C 13.429688 13.867188 14.570312 14.375 15.515625 15.171875 C 16.269531 15.804688 17.457031 16.652344 18.84375 17.105469 C 19.753906 17.402344 20.734375 17.222656 21.460938 16.632812 C 21.679688 16.453125 21.828125 16.273438 21.890625 16.109375 C 21.980469 15.886719 22.238281 15.773438 22.464844 15.859375 C 22.695312 15.945312 22.808594 16.199219 22.71875 16.425781 C 22.597656 16.734375 22.367188 17.027344 22.023438 17.308594 C 21.941406 17.375 21.851562 17.433594 21.761719 17.492188 C 23.285156 17.710938 25.050781 17.597656 26.234375 15.753906 C 26.800781 14.867188 27.050781 13.832031 26.9375 12.839844 C 26.816406 11.792969 26.355469 11.105469 25.566406 10.800781 " fill-opacity="1" fill-rule="nonzero"/><g clip-path="url(#bd2218e7fd)"><path fill="#000000" d="M 26.980469 16.222656 C 26.238281 17.382812 25.210938 18.097656 23.933594 18.351562 C 23.558594 18.425781 23.183594 18.457031 22.824219 18.457031 C 22.191406 18.457031 21.605469 18.367188 21.113281 18.277344 C 20.953125 18.246094 20.746094 18.210938 20.542969 18.175781 L 20.542969 21.511719 C 20.542969 21.878906 20.300781 22.195312 19.828125 22.460938 C 19.480469 22.652344 18.992188 22.824219 18.382812 22.964844 C 17.179688 23.25 15.582031 23.40625 13.890625 23.40625 C 12.199219 23.40625 10.605469 23.25 9.402344 22.964844 C 8.792969 22.824219 8.304688 22.652344 7.957031 22.460938 C 7.484375 22.195312 7.242188 21.878906 7.242188 21.511719 L 7.242188 17.261719 C 6.582031 17.203125 5.898438 17.027344 5.265625 16.746094 C 4.414062 16.367188 3.722656 15.828125 3.265625 15.1875 C 3.246094 15.164062 3.230469 15.144531 3.214844 15.121094 C 2.566406 14.199219 2.171875 13.140625 2.070312 12.0625 C 1.953125 10.8125 2.222656 9.625 2.871094 8.535156 C 3.390625 7.660156 4.128906 6.910156 5.003906 6.367188 C 5.871094 5.828125 6.871094 5.492188 7.898438 5.390625 C 8.738281 5.304688 9.59375 5.324219 10.445312 5.4375 C 11.125 5.53125 11.804688 5.6875 12.460938 5.902344 C 13.554688 6.261719 14.226562 6.664062 14.289062 6.703125 C 15.207031 7.25 16.015625 7.964844 16.695312 8.832031 C 16.921875 9.121094 17.128906 9.425781 17.324219 9.746094 C 18.234375 10.527344 19.632812 10.621094 20.652344 10.5625 C 21.816406 10.492188 22.992188 10.199219 23.644531 9.964844 C 24.382812 9.703125 25.179688 9.710938 25.890625 9.984375 C 26.992188 10.414062 27.65625 11.363281 27.816406 12.738281 C 27.953125 13.933594 27.65625 15.167969 26.980469 16.222656 Z M 28.585938 12.652344 C 28.394531 11.003906 27.539062 9.800781 26.171875 9.273438 C 25.71875 9.097656 25.242188 9.007812 24.75 9.007812 C 24.285156 9.007812 23.824219 9.089844 23.382812 9.246094 C 22.777344 9.460938 21.6875 9.734375 20.605469 9.796875 C 20.464844 9.804688 20.3125 9.8125 20.15625 9.8125 C 19.460938 9.8125 18.527344 9.703125 17.910156 9.226562 C 17.71875 8.929688 17.519531 8.636719 17.308594 8.363281 C 16.570312 7.421875 15.6875 6.640625 14.691406 6.046875 C 14.558594 5.96875 13.839844 5.546875 12.703125 5.175781 C 12.003906 4.945312 11.277344 4.78125 10.550781 4.679688 C 10.023438 4.609375 9.484375 4.570312 8.953125 4.570312 C 8.574219 4.570312 8.195312 4.589844 7.820312 4.628906 C 6.675781 4.742188 5.558594 5.117188 4.59375 5.71875 C 3.613281 6.328125 2.785156 7.167969 2.207031 8.144531 C 1.472656 9.378906 1.167969 10.71875 1.300781 12.132812 C 1.414062 13.34375 1.855469 14.527344 2.597656 15.582031 L 2.632812 15.628906 C 3.167969 16.378906 3.96875 17.007812 4.949219 17.445312 C 5.433594 17.660156 5.949219 17.816406 6.46875 17.921875 L 6.46875 21.511719 C 6.46875 21.96875 6.660156 22.617188 7.578125 23.125 C 7.988281 23.355469 8.542969 23.550781 9.222656 23.710938 C 10.484375 24.007812 12.144531 24.171875 13.890625 24.171875 C 15.640625 24.171875 17.300781 24.007812 18.5625 23.710938 C 19.242188 23.550781 19.796875 23.355469 20.207031 23.125 C 21.121094 22.617188 21.316406 21.96875 21.316406 21.511719 L 21.316406 19.089844 C 21.746094 19.15625 22.261719 19.222656 22.824219 19.222656 C 23.261719 19.222656 23.6875 19.179688 24.085938 19.101562 C 25.578125 18.808594 26.773438 17.976562 27.636719 16.632812 C 28.40625 15.433594 28.742188 14.019531 28.585938 12.652344 " fill-opacity="1" fill-rule="nonzero"/></g></svg>